<svg width="50" height="50" viewBox="0 0 50 50" fill="none" xmlns="http://www.w3.org/2000/svg">
<mask id="path-1-inside-1" fill="white">
<path fill-rule="evenodd" clip-rule="evenodd" d="M8.35186 35.6H8.35186C3.91312 35.6 0.314819 32.0017 0.314819 27.563C0.314819 23.1242 3.91312 19.5259 8.35186 19.5259C8.36418 19.5259 8.3765 19.526 8.38881 19.526C8.94342 10.9644 15.6782 4.60001 24.4259 4.60001C30.6427 4.60001 36.2253 8.80506 38.3939 14.9772C38.7093 14.9482 39.0289 14.9333 39.3519 14.9333C45.0588 14.9333 49.6852 19.5597 49.6852 25.2667C49.6852 30.5855 45.6666 34.9658 40.5 35.5369V35.6"/>
</mask>
<path d="M8.35186 39.6C10.561 39.6 12.3519 37.8091 12.3519 35.6C12.3519 33.3909 10.561 31.6 8.35186 31.6V39.6ZM8.38881 19.526L8.37081 23.526C10.4865 23.5355 12.2437 21.8959 12.3804 19.7846L8.38881 19.526ZM38.3939 14.9772L34.6201 16.3031C35.2279 18.0331 36.9341 19.1282 38.76 18.9604L38.3939 14.9772ZM40.5 35.5369L40.0605 31.5612C38.0338 31.7852 36.5 33.4979 36.5 35.5369H40.5ZM36.5 35.6C36.5 37.8091 38.2909 39.6 40.5 39.6C42.7091 39.6 44.5 37.8091 44.5 35.6H36.5ZM8.35186 31.6H8.35186V39.6H8.35186V31.6ZM8.35186 31.6C6.12226 31.6 4.31482 29.7926 4.31482 27.563H-3.68518C-3.68518 34.2108 1.70398 39.6 8.35186 39.6V31.6ZM4.31482 27.563C4.31482 25.3334 6.12226 23.5259 8.35186 23.5259V15.5259C1.70398 15.5259 -3.68518 20.9151 -3.68518 27.563H4.31482ZM8.35186 23.5259C8.35823 23.5259 8.36454 23.5259 8.37081 23.526L8.40682 15.5261C8.38846 15.526 8.37014 15.5259 8.35186 15.5259V23.5259ZM12.3804 19.7846C12.7981 13.3365 17.7777 8.60001 24.4259 8.60001V0.600006C13.5787 0.600006 5.0887 8.59226 4.39718 19.2674L12.3804 19.7846ZM24.4259 8.60001C28.788 8.60001 32.9605 11.58 34.6201 16.3031L42.1677 13.6512C39.49 6.03016 32.4975 0.600006 24.4259 0.600006V8.60001ZM38.76 18.9604C38.9539 18.9425 39.1513 18.9333 39.3519 18.9333V10.9333C38.9064 10.9333 38.4647 10.9538 38.0277 10.9939L38.76 18.9604ZM39.3519 18.9333C42.8497 18.9333 45.6852 21.7689 45.6852 25.2667H53.6852C53.6852 17.3506 47.2679 10.9333 39.3519 10.9333V18.9333ZM45.6852 25.2667C45.6852 28.5239 43.2229 31.2116 40.0605 31.5612L40.9395 39.5127C48.1103 38.72 53.6852 32.6471 53.6852 25.2667H45.6852ZM36.5 35.5369V35.6H44.5V35.5369H36.5Z" fill="#777677" mask="url(#path-1-inside-1)"/>
<mask id="path-3-inside-2" fill="white">
<path fill-rule="evenodd" clip-rule="evenodd" d="M32.963 45.1H21.463H9.96296C6.66971 45.1 4 42.4303 4 39.137C4 35.8438 6.66971 33.1741 9.96296 33.1741L9.9707 33.1741C10.1948 27.0201 15.2543 22.1 21.463 22.1C26.4801 22.1 30.7469 25.3129 32.318 29.7934C32.5306 29.7757 32.7457 29.7667 32.963 29.7667C37.1971 29.7667 40.6296 33.1992 40.6296 37.4333C40.6296 41.3796 37.6481 44.6295 33.8148 45.0532V45.1H32.963Z"/>
</mask>
<path d="M9.96296 33.1741L9.96592 29.1741H9.96296V33.1741ZM9.9707 33.1741L9.96775 37.1741C12.1214 37.1757 13.8897 35.4718 13.9681 33.3196L9.9707 33.1741ZM32.318 29.7934L28.5433 31.117C29.1462 32.8362 30.8345 33.9308 32.65 33.7796L32.318 29.7934ZM33.8148 45.0532L33.3753 41.0774C31.3486 41.3015 29.8148 43.0142 29.8148 45.0532H33.8148ZM33.8148 45.1V49.1C36.024 49.1 37.8148 47.3091 37.8148 45.1H33.8148ZM32.963 41.1H21.463V49.1H32.963V41.1ZM21.463 41.1H9.96296V49.1H21.463V41.1ZM9.96296 41.1C8.87885 41.1 8 40.2212 8 39.137H0C0 44.6394 4.46057 49.1 9.96296 49.1V41.1ZM8 39.137C8 38.0529 8.87885 37.1741 9.96296 37.1741V29.1741C4.46057 29.1741 0 33.6346 0 39.137H8ZM9.96001 37.1741L9.96775 37.1741L9.97366 29.1741L9.96592 29.1741L9.96001 37.1741ZM13.9681 33.3196C14.1141 29.3089 17.4147 26.1 21.463 26.1V18.1C13.0939 18.1 6.27544 24.7314 5.97335 33.0285L13.9681 33.3196ZM21.463 26.1C24.7288 26.1 27.5168 28.1897 28.5433 31.117L36.0927 28.4698C33.9769 22.4361 28.2315 18.1 21.463 18.1V26.1ZM32.65 33.7796C32.7524 33.7711 32.8567 33.7667 32.963 33.7667V25.7667C32.6348 25.7667 32.3089 25.7803 31.986 25.8072L32.65 33.7796ZM32.963 33.7667C34.988 33.7667 36.6296 35.4083 36.6296 37.4333H44.6296C44.6296 30.99 39.4063 25.7667 32.963 25.7667V33.7667ZM36.6296 37.4333C36.6296 39.318 35.2044 40.8752 33.3753 41.0774L34.2543 49.029C40.0918 48.3837 44.6296 43.4412 44.6296 37.4333H36.6296ZM29.8148 45.0532V45.1H37.8148V45.0532H29.8148ZM33.8148 41.1H32.963V49.1H33.8148V41.1Z" fill="#777677" mask="url(#path-3-inside-2)"/>
</svg>
