<svg width="50" height="50" viewBox="0 0 50 50" fill="none" xmlns="http://www.w3.org/2000/svg">
<mask id="path-1-outside-1" maskUnits="userSpaceOnUse" x="10" y="10" width="21" height="21" fill="black">
<rect fill="white" x="10" y="10" width="21" height="21"/>
<path fill-rule="evenodd" clip-rule="evenodd" d="M27 20C27 21.1612 26.6426 22.2454 26.0239 23.1639C23.3666 23.5187 20.9013 24.4363 18.768 25.7847C16.019 25.0849 14 22.7601 14 20C14 16.6863 16.9101 14 20.5 14C24.0899 14 27 16.6863 27 20Z"/>
</mask>
<path d="M26.0239 23.1639L26.5533 27.1287L28.3364 26.8906L29.3414 25.3987L26.0239 23.1639ZM18.768 25.7847L17.7813 29.661L19.4498 30.0857L20.9051 29.1659L18.768 25.7847ZM29.3414 25.3987C30.3805 23.8561 31 22.0002 31 20H23C23 20.3223 22.9048 20.6347 22.7064 20.9291L29.3414 25.3987ZM20.9051 29.1659C22.5549 28.1232 24.4725 27.4066 26.5533 27.1287L25.4945 19.1991C22.2607 19.6309 19.2477 20.7495 16.631 22.4034L20.9051 29.1659ZM10 20C10 24.8272 13.5013 28.5716 17.7813 29.661L19.7548 21.9083C18.5366 21.5982 18 20.6929 18 20H10ZM20.5 10C15.0085 10 10 14.1817 10 20H18C18 19.1909 18.8118 18 20.5 18V10ZM31 20C31 14.1817 25.9915 10 20.5 10V18C22.1882 18 23 19.1909 23 20H31Z" fill="#777677" mask="url(#path-1-outside-1)"/>
<path fill-rule="evenodd" clip-rule="evenodd" d="M20.1518 0C18.9765 0 18.0238 0.952724 18.0238 2.12797V4.25595C18.0238 5.43119 18.9765 6.38392 20.1518 6.38392C21.327 6.38392 22.2797 5.4312 22.2797 4.25595V2.12797C22.2797 0.952726 21.327 0 20.1518 0ZM33.6941 5.60942C32.8631 4.7784 31.5157 4.77839 30.6847 5.60942L29.18 7.11412C28.349 7.94515 28.349 9.29251 29.18 10.1235C30.011 10.9546 31.3584 10.9546 32.1894 10.1235L33.6941 8.61883C34.5251 7.7878 34.5251 6.44044 33.6941 5.60942ZM37.1755 17.0238C38.3508 17.0238 39.3035 17.9765 39.3035 19.1518C39.3035 20.327 38.3508 21.2797 37.1755 21.2797H35.0476C33.8723 21.2797 32.9196 20.327 32.9196 19.1518C32.9196 17.9765 33.8723 17.0238 35.0476 17.0238H37.1755ZM6.60942 32.6941C7.44045 33.5251 8.7878 33.5251 9.61883 32.6941L11.1235 31.1894C11.9546 30.3584 11.9546 29.011 11.1235 28.18C10.2925 27.349 8.94515 27.349 8.11413 28.18L6.60942 29.6847C5.7784 30.5157 5.7784 31.8631 6.60942 32.6941ZM3.12797 21.2797C1.95272 21.2797 1 20.327 1 19.1518C1 17.9765 1.95273 17.0238 3.12797 17.0238H5.25595C6.4312 17.0238 7.38392 17.9765 7.38392 19.1518C7.38392 20.327 6.43119 21.2797 5.25595 21.2797H3.12797ZM6.60942 5.60942C5.7784 6.44045 5.77839 7.7878 6.60942 8.61883L8.11412 10.1235C8.94515 10.9546 10.2925 10.9546 11.1235 10.1235C11.9546 9.29251 11.9546 7.94515 11.1235 7.11413L9.61883 5.60942C8.7878 4.7784 7.44044 4.7784 6.60942 5.60942Z" fill="#777677"/>
<mask id="path-4-inside-2" fill="white">
<path fill-rule="evenodd" clip-rule="evenodd" d="M40 50H26.5H13C9.13401 50 6 46.866 6 43C6 39.134 9.13401 36 13 36L13.0091 36C13.2721 28.7758 19.2115 23 26.5 23C32.3897 23 37.3985 26.7716 39.2429 32.0314C39.4925 32.0106 39.745 32 40 32C44.9706 32 49 36.0294 49 41C49 45.6326 45.5 49.4476 41 49.9451V50H40Z"/>
</mask>
<path d="M13 36L13.0034 32H13V36ZM13.0091 36L13.0057 40C15.1595 40.0018 16.9281 38.2979 17.0064 36.1455L13.0091 36ZM39.2429 32.0314L35.4682 33.355C36.0711 35.0742 37.7594 36.1688 39.5749 36.0176L39.2429 32.0314ZM41 49.9451L40.5605 45.9693C38.5338 46.1933 37 47.906 37 49.9451H41ZM41 50V54C43.2091 54 45 52.2091 45 50H41ZM40 46H26.5V54H40V46ZM26.5 46H13V54H26.5V46ZM13 46C11.3431 46 10 44.6569 10 43H2C2 49.0751 6.92487 54 13 54V46ZM10 43C10 41.3431 11.3431 40 13 40V32C6.92487 32 2 36.9249 2 43H10ZM12.9966 40L13.0057 40L13.0124 32L13.0034 32L12.9966 40ZM17.0064 36.1455C17.1914 31.0645 21.3719 27 26.5 27V19C17.0512 19 9.35279 26.4871 9.01174 35.8545L17.0064 36.1455ZM26.5 27C30.6384 27 34.1685 29.6484 35.4682 33.355L43.0175 30.7078C40.6285 23.8949 34.1411 19 26.5 19V27ZM39.5749 36.0176C39.7142 36.006 39.856 36 40 36V28C39.634 28 39.2707 28.0152 38.9108 28.0452L39.5749 36.0176ZM40 36C42.7614 36 45 38.2386 45 41H53C53 33.8203 47.1797 28 40 28V36ZM45 41C45 43.571 43.0562 45.6934 40.5605 45.9693L41.4395 53.9209C47.9437 53.2019 53 47.6942 53 41H45ZM37 49.9451V50H45V49.9451H37ZM41 46H40V54H41V46Z" fill="#777677" mask="url(#path-4-inside-2)"/>
</svg>
