<svg width="50" height="50" viewBox="0 0 50 50" fill="none" xmlns="http://www.w3.org/2000/svg">
<mask id="path-1-inside-1" fill="white">
<path fill-rule="evenodd" clip-rule="evenodd" d="M38.3721 42H23.9302H9.48837C5.35266 42 2 39.2142 2 35.7778C2 32.3413 5.35266 29.5556 9.48837 29.5556L9.49809 29.5556C9.77947 23.134 16.1333 18 23.9302 18C30.2309 18 35.5891 21.3526 37.5621 26.0279C37.8292 26.0094 38.0993 26 38.3721 26C43.6894 26 48 29.5817 48 34C48 38.1178 44.2558 41.509 39.4419 41.9512V42H38.3721Z"/>
</mask>
<path d="M9.48837 29.5556L9.49112 25.5556H9.48837V29.5556ZM9.49809 29.5556L9.49535 33.5556C11.6375 33.557 13.4005 31.8707 13.4943 29.7307L9.49809 29.5556ZM37.5621 26.0279L33.8769 27.5831C34.5414 29.1579 36.1332 30.1364 37.8383 30.0184L37.5621 26.0279ZM39.4419 41.9512L39.076 37.9679C37.0173 38.157 35.4419 39.8838 35.4419 41.9512H39.4419ZM39.4419 42V46C41.651 46 43.4419 44.2091 43.4419 42H39.4419ZM38.3721 38H23.9302V46H38.3721V38ZM23.9302 38H9.48837V46H23.9302V38ZM9.48837 38C8.30443 38 7.34912 37.5991 6.74964 37.101C6.15868 36.61 6 36.1242 6 35.7778H-2C-2 42.085 3.86906 46 9.48837 46V38ZM6 35.7778C6 35.4313 6.15868 34.9456 6.74964 34.4545C7.34912 33.9564 8.30443 33.5556 9.48837 33.5556V25.5556C3.86906 25.5556 -2 29.4706 -2 35.7778H6ZM9.48563 33.5556L9.49535 33.5556L9.50084 25.5556L9.49112 25.5556L9.48563 33.5556ZM13.4943 29.7307C13.6551 26.0597 17.6038 22 23.9302 22V14C14.6627 14 5.90382 20.2084 5.50193 29.3805L13.4943 29.7307ZM23.9302 22C28.9261 22 32.6392 24.6503 33.8769 27.5831L41.2474 24.4727C38.539 18.0548 31.5356 14 23.9302 14V22ZM37.8383 30.0184C38.0135 30.0062 38.1915 30 38.3721 30V22C38.0071 22 37.6449 22.0126 37.286 22.0375L37.8383 30.0184ZM38.3721 30C42.2058 30 44 32.4525 44 34H52C52 26.711 45.173 22 38.3721 22V30ZM44 34C44 35.4571 42.4808 37.6552 39.076 37.9679L39.8077 45.9344C46.0307 45.3628 52 40.7785 52 34H44ZM35.4419 41.9512V42H43.4419V41.9512H35.4419ZM39.4419 38H38.3721V46H39.4419V38Z" fill="#777677" mask="url(#path-1-inside-1)"/>
<g clip-path="url(#clip0)">
<rect x="9.83072" y="37.6175" width="6.05552" height="9.64139" rx="3.02776" transform="rotate(20 9.83072 37.6175)" fill="#777677"/>
<rect x="15.2706" y="42.7588" width="6.05552" height="6.64" rx="3.02776" transform="rotate(20 15.2706 42.7588)" fill="#777677"/>
<rect x="23.2984" y="40.5808" width="6.05552" height="6.64" rx="3.02776" transform="rotate(20 23.2984 40.5808)" fill="#777677"/>
<rect x="31.0634" y="38.8094" width="6.05552" height="10.64" rx="3.02776" transform="rotate(20 31.0634 38.8094)" fill="#777677"/>
<rect x="39.0307" y="39.7714" width="6.05552" height="7.64" rx="3.02776" transform="rotate(20 39.0307 39.7714)" fill="#777677"/>
</g>
<mask id="path-8-outside-2" maskUnits="userSpaceOnUse" x="13.522" y="9.22127" width="25.5817" height="15.6067" fill="black">
<rect fill="white" x="13.522" y="9.22127" width="25.5817" height="15.6067"/>
<path fill-rule="evenodd" clip-rule="evenodd" d="M33.2758 24.2022C33.967 19.8383 30.9896 15.7404 26.6258 15.0492C22.2619 14.3581 18.1639 17.3354 17.4728 21.6993"/>
</mask>
<path d="M37.2265 24.828C38.2633 18.2821 33.7973 12.1352 27.2515 11.0985L26 19C28.182 19.3456 29.6706 21.3945 29.325 23.5765L37.2265 24.828ZM27.2515 11.0985C20.7057 10.0617 14.5588 14.5277 13.522 21.0735L21.4235 22.325C21.7691 20.1431 23.8181 18.6544 26 19L27.2515 11.0985Z" fill="#777677" mask="url(#path-8-outside-2)"/>
<path fill-rule="evenodd" clip-rule="evenodd" d="M23 2C23 0.895431 23.8954 0 25 0C26.1046 0 27 0.895431 27 2V6C27 7.10457 26.1046 8 25 8C23.8954 8 23 7.10457 23 6V2ZM38.435 6.73654C39.2161 5.9555 40.4824 5.9555 41.2635 6.73654C42.0445 7.51759 42.0445 8.78392 41.2635 9.56497L38.435 12.3934C37.654 13.1744 36.3876 13.1744 35.6066 12.3934C34.8256 11.6123 34.8256 10.346 35.6066 9.56497L38.435 6.73654ZM48 23C48 21.8954 47.1046 21 46 21H42C40.8954 21 40 21.8954 40 23C40 24.1046 40.8954 25 42 25H46C47.1046 25 48 24.1046 48 23ZM4 25C2.89543 25 2 24.1046 2 23C2 21.8954 2.89543 21 4 21H8C9.10457 21 10 21.8954 10 23C10 24.1046 9.10457 25 8 25H4ZM8.73654 6.73654C7.9555 7.51759 7.9555 8.78392 8.73654 9.56497L11.565 12.3934C12.346 13.1744 13.6123 13.1744 14.3934 12.3934C15.1744 11.6123 15.1744 10.346 14.3934 9.56497L11.565 6.73654C10.7839 5.9555 9.51759 5.9555 8.73654 6.73654Z" fill="#777677"/>
<defs>
<clipPath id="clip0">
<rect width="37" height="12" fill="white" transform="translate(6 38)"/>
</clipPath>
</defs>
</svg>
