<svg width="50" height="50" viewBox="0 0 50 50" fill="none" xmlns="http://www.w3.org/2000/svg">
<mask id="path-1-inside-1" fill="white">
<path fill-rule="evenodd" clip-rule="evenodd" d="M39.5 32H24H9C4.58172 32 1 28.4183 1 24C1 19.5817 4.58172 16 9 16L9.00766 16C9.26309 7.67099 15.8776 1 24 1C30.4455 1 35.9414 5.20081 38.0637 11.0974C38.5333 11.0332 39.0128 11 39.5 11C45.299 11 50 15.701 50 21.5C50 27.1314 45.5668 31.7273 40 31.9883V32H39.5Z"/>
</mask>
<path d="M9 16L9.00299 12H9V16ZM9.00766 16L9.00467 20C11.1672 20.0016 12.9395 18.2842 13.0058 16.1226L9.00766 16ZM38.0637 11.0974L34.3 12.452C34.9396 14.2289 36.7347 15.3165 38.6058 15.0605L38.0637 11.0974ZM40 31.9883L39.8127 27.9927C37.6787 28.0927 36 29.852 36 31.9883H40ZM40 32V36C42.2091 36 44 34.2091 44 32H40ZM39.5 28H24V36H39.5V28ZM24 28H9V36H24V28ZM9 28C6.79086 28 5 26.2091 5 24H-3C-3 30.6274 2.37258 36 9 36V28ZM5 24C5 21.7909 6.79086 20 9 20V12C2.37258 12 -3 17.3726 -3 24H5ZM8.99701 20L9.00467 20L9.01065 12L9.00299 12L8.99701 20ZM13.0058 16.1226C13.1988 9.82808 18.1628 5 24 5V-3C13.5924 -3 5.32736 5.51391 5.00954 15.8774L13.0058 16.1226ZM24 5C28.6391 5 32.7075 8.02715 34.3 12.452L41.8273 9.74284C39.1754 2.37448 32.2518 -3 24 -3V5ZM38.6058 15.0605C38.8962 15.0208 39.1946 15 39.5 15V7C38.8309 7 38.1703 7.04559 37.5216 7.13433L38.6058 15.0605ZM39.5 15C43.0898 15 46 17.9101 46 21.5H54C54 13.4919 47.5081 7 39.5 7V15ZM46 21.5C46 24.985 43.2556 27.8313 39.8127 27.9927L40.1873 35.9839C47.878 35.6234 54 29.2778 54 21.5H46ZM36 31.9883V32H44V31.9883H36ZM40 28H39.5V36H40V28Z" fill="#777677" mask="url(#path-1-inside-1)"/>
<rect x="7.83072" y="32.6175" width="4" height="10" rx="2" transform="rotate(20 7.83072 32.6175)" fill="#777677"/>
<rect x="17.5408" y="28.919" width="4" height="20" rx="2" transform="rotate(20 17.5408 28.919)" fill="#777677"/>
<rect x="24.8568" y="32.7984" width="4" height="16" rx="2" transform="rotate(20 24.8568 32.7984)" fill="#777677"/>
<rect x="34.1727" y="29.6778" width="4" height="12" rx="2" transform="rotate(20 34.1727 29.6778)" fill="#777677"/>
<rect x="39.4887" y="38.5572" width="4" height="8" rx="2" transform="rotate(20 39.4887 38.5572)" fill="#777677"/>
</svg>
