<svg width="50" height="50" viewBox="0 0 50 50" fill="none" xmlns="http://www.w3.org/2000/svg">
<mask id="path-1-inside-1" fill="white">
<path fill-rule="evenodd" clip-rule="evenodd" d="M39.5931 31H24.3655H24.3389L26.2531 24.765H20.1013L18.5056 31H9.61379C5.40881 31 2 27.5338 2 23.2581C2 18.9823 5.40881 15.5161 9.61379 15.5161L9.62132 15.5161C9.87253 7.4558 16.3776 1 24.3655 1C30.7058 1 36.1118 5.06719 38.1979 10.7757C38.6538 10.7109 39.1196 10.6774 39.5931 10.6774C45.1121 10.6774 49.5862 15.2268 49.5862 20.8387C49.5862 26.2884 45.367 30.7361 40.069 30.9887V31H39.5931Z"/>
</mask>
<path d="M24.3389 31L20.515 29.826C20.1426 31.0391 20.3679 32.3569 21.1221 33.3774C21.8763 34.3979 23.0699 35 24.3389 35V31ZM26.2531 24.765L30.0769 25.939C30.4494 24.7259 30.2241 23.4081 29.4699 22.3876C28.7157 21.3671 27.522 20.765 26.2531 20.765V24.765ZM20.1013 24.765V20.765C18.2741 20.765 16.6792 22.0031 16.2262 23.7733L20.1013 24.765ZM18.5056 31V35C20.3328 35 21.9277 33.7619 22.3807 31.9917L18.5056 31ZM9.61379 15.5161L9.61683 11.5161H9.61379V15.5161ZM9.62132 15.5161L9.61828 19.5161C11.7801 19.5178 13.552 17.8015 13.6194 15.6407L9.62132 15.5161ZM38.1979 10.7757L34.4409 12.1486C35.0892 13.9228 36.8903 15.0016 38.7604 14.7359L38.1979 10.7757ZM40.069 30.9887L39.8785 26.9932C37.7458 27.0949 36.069 28.8536 36.069 30.9887H40.069ZM40.069 31V35C42.2781 35 44.069 33.2091 44.069 31H40.069ZM24.3655 35H39.5931V27H24.3655V35ZM24.3389 35H24.3655V27H24.3389V35ZM22.4293 23.591L20.515 29.826L28.1627 32.174L30.0769 25.939L22.4293 23.591ZM20.1013 28.765H26.2531V20.765H20.1013V28.765ZM22.3807 31.9917L23.9764 25.7567L16.2262 23.7733L14.6305 30.0083L22.3807 31.9917ZM9.61379 35H18.5056V27H9.61379V35ZM-2 23.2581C-2 29.6798 3.137 35 9.61379 35V27C7.68063 27 6 25.3879 6 23.2581H-2ZM9.61379 11.5161C3.137 11.5161 -2 16.8364 -2 23.2581H6C6 21.1282 7.68063 19.5161 9.61379 19.5161V11.5161ZM9.62436 11.5161L9.61683 11.5161L9.61075 19.5161L9.61828 19.5161L9.62436 11.5161ZM24.3655 -3C14.1503 -3 5.93968 5.23882 5.62326 15.3915L13.6194 15.6407C13.8054 9.67278 18.6048 5 24.3655 5V-3ZM41.9549 9.40274C39.3227 2.19993 32.4725 -3 24.3655 -3V5C28.939 5 32.9009 7.93445 34.4409 12.1486L41.9549 9.40274ZM39.5931 6.67742C38.9308 6.67742 38.277 6.72428 37.6353 6.81543L38.7604 14.7359C39.0306 14.6975 39.3085 14.6774 39.5931 14.6774V6.67742ZM53.5862 20.8387C53.5862 13.0808 47.384 6.67742 39.5931 6.67742V14.6774C42.8403 14.6774 45.5862 17.3727 45.5862 20.8387H53.5862ZM40.2594 34.9841C47.7384 34.6276 53.5862 28.3749 53.5862 20.8387H45.5862C45.5862 24.2019 42.9957 26.8446 39.8785 26.9932L40.2594 34.9841ZM44.069 31V30.9887H36.069V31H44.069ZM39.5931 35H40.069V27H39.5931V35Z" fill="#777677" mask="url(#path-1-inside-1)"/>
<g clip-path="url(#clip0)">
<rect x="7.83072" y="32.6175" width="6.05552" height="9.64139" rx="3.02776" transform="rotate(20 7.83072 32.6175)" fill="#777677"/>
<rect x="11.3177" y="40.527" width="5.02764" height="6.8216" rx="2.51382" transform="rotate(20 11.3177 40.527)" fill="#777677"/>
<rect x="34.8828" y="26.9793" width="10.1619" height="20.9187" rx="5.08096" transform="rotate(20 34.8828 26.9793)" fill="#777677"/>
<rect x="40.0017" y="33.6476" width="6.39656" height="10.582" rx="3.19828" transform="rotate(20 40.0017 33.6476)" fill="#777677"/>
</g>
<mask id="path-7-outside-2" maskUnits="userSpaceOnUse" x="14.2996" y="21.765" width="15" height="27" fill="black">
<rect fill="white" x="14.2996" y="21.765" width="15" height="27"/>
<path fill-rule="evenodd" clip-rule="evenodd" d="M23.4124 34.0176L26.2531 24.765H20.1013L17.2996 35.7124H19.9273L18.9774 44.965L26.2531 34.0176H23.4124Z"/>
</mask>
<path d="M26.2531 24.765L29.121 25.6455C29.4003 24.7357 29.2314 23.7473 28.6657 22.982C28.1001 22.2166 27.2048 21.765 26.2531 21.765V24.765ZM23.4124 34.0176L20.5446 33.1371C20.2652 34.0469 20.4342 35.0353 20.9998 35.8007C21.5655 36.566 22.4607 37.0176 23.4124 37.0176V34.0176ZM20.1013 24.765V21.765C18.7309 21.765 17.5348 22.6936 17.195 24.0212L20.1013 24.765ZM17.2996 35.7124L14.3933 34.9686C14.1635 35.8664 14.3616 36.82 14.9298 37.5521C15.4981 38.2841 16.3729 38.7124 17.2996 38.7124V35.7124ZM19.9273 35.7124L22.9116 36.0188C22.9983 35.1743 22.7232 34.3326 22.1543 33.7023C21.5855 33.0721 20.7763 32.7124 19.9273 32.7124V35.7124ZM18.9774 44.965L15.993 44.6586C15.8521 46.0312 16.6656 47.3229 17.9643 47.7888C19.2631 48.2547 20.7121 47.7747 21.4759 46.6256L18.9774 44.965ZM26.2531 34.0176L28.7516 35.6782C29.3636 34.7574 29.4195 33.5746 28.8971 32.6002C28.3747 31.6257 27.3587 31.0176 26.2531 31.0176V34.0176ZM23.3852 23.8845L20.5446 33.1371L26.2803 34.8981L29.121 25.6455L23.3852 23.8845ZM20.1013 27.765H26.2531V21.765H20.1013V27.765ZM20.2059 36.4562L23.0076 25.5088L17.195 24.0212L14.3933 34.9686L20.2059 36.4562ZM19.9273 32.7124H17.2996V38.7124H19.9273V32.7124ZM21.9617 45.2714L22.9116 36.0188L16.943 35.406L15.993 44.6586L21.9617 45.2714ZM23.7546 32.3571L16.4788 43.3045L21.4759 46.6256L28.7516 35.6782L23.7546 32.3571ZM23.4124 37.0176H26.2531V31.0176H23.4124V37.0176Z" fill="#777677" mask="url(#path-7-outside-2)"/>
<defs>
<clipPath id="clip0">
<rect width="40" height="22" fill="white" transform="translate(4 27)"/>
</clipPath>
</defs>
</svg>
