<svg width="50" height="50" viewBox="0 0 50 50" fill="none" xmlns="http://www.w3.org/2000/svg">
<path fill-rule="evenodd" clip-rule="evenodd" d="M12 25C12 32.1797 17.8203 38 25 38C32.1797 38 38 32.1797 38 25C38 17.8203 32.1797 12 25 12C17.8203 12 12 17.8203 12 25ZM34 25C34 29.9706 29.9706 34 25 34C20.0294 34 16 29.9706 16 25C16 20.0294 20.0294 16 25 16C29.9706 16 34 20.0294 34 25Z" fill="#777677"/>
<path fill-rule="evenodd" clip-rule="evenodd" d="M25 0C23.8954 0 23 0.895431 23 2V6C23 7.10457 23.8954 8 25 8C26.1046 8 27 7.10457 27 6V2C27 0.895431 26.1046 0 25 0ZM42.6777 7.32233C41.8966 6.54128 40.6303 6.54128 39.8492 7.32233L37.0208 10.1508C36.2398 10.9318 36.2398 12.1981 37.0208 12.9792C37.8019 13.7602 39.0682 13.7602 39.8492 12.9792L42.6777 10.1508C43.4587 9.36971 43.4587 8.10338 42.6777 7.32233ZM48 23C49.1046 23 50 23.8954 50 25C50 26.1046 49.1046 27 48 27H44C42.8954 27 42 26.1046 42 25C42 23.8954 42.8954 23 44 23H48ZM42.6777 42.6777C43.4587 41.8966 43.4587 40.6303 42.6777 39.8492L39.8492 37.0208C39.0682 36.2398 37.8019 36.2398 37.0208 37.0208C36.2398 37.8019 36.2398 39.0682 37.0208 39.8492L39.8492 42.6777C40.6303 43.4587 41.8966 43.4587 42.6777 42.6777ZM27 48C27 49.1046 26.1046 50 25 50C23.8954 50 23 49.1046 23 48V44C23 42.8954 23.8954 42 25 42C26.1046 42 27 42.8954 27 44V48ZM7.32233 42.6777C8.10338 43.4587 9.36971 43.4587 10.1508 42.6777L12.9792 39.8492C13.7602 39.0682 13.7602 37.8019 12.9792 37.0208C12.1981 36.2398 10.9318 36.2398 10.1508 37.0208L7.32233 39.8492C6.54128 40.6303 6.54128 41.8966 7.32233 42.6777ZM2 27C0.895431 27 0 26.1046 0 25C0 23.8954 0.895431 23 2 23H6C7.10457 23 8 23.8954 8 25C8 26.1046 7.10457 27 6 27H2ZM7.32233 7.32233C6.54128 8.10338 6.54128 9.36971 7.32233 10.1508L10.1508 12.9792C10.9318 13.7602 12.1981 13.7602 12.9792 12.9792C13.7602 12.1981 13.7602 10.9318 12.9792 10.1508L10.1508 7.32233C9.36971 6.54128 8.10338 6.54128 7.32233 7.32233Z" fill="#777677"/>
</svg>
