<svg width="50" height="50" viewBox="0 0 50 50" fill="none" xmlns="http://www.w3.org/2000/svg">
<g clip-path="url(#clip0)">
<path fill-rule="evenodd" clip-rule="evenodd" d="M23 4.60001C23 3.49544 23.8955 2.60001 25 2.60001C26.1046 2.60001 27 3.49544 27 4.60001V8.60001C27 9.70458 26.1046 10.6 25 10.6C23.8955 10.6 23 9.70458 23 8.60001V4.60001ZM39.8493 9.92234C40.6303 9.14129 41.8966 9.14129 42.6777 9.92234C43.4587 10.7034 43.4587 11.9697 42.6777 12.7508L39.8493 15.5792C39.0682 16.3602 37.8019 16.3602 37.0208 15.5792C36.2398 14.7981 36.2398 13.5318 37.0208 12.7508L39.8493 9.92234ZM7.32235 9.92234C6.5413 10.7034 6.5413 11.9697 7.32235 12.7508L10.1508 15.5792C10.9318 16.3602 12.1982 16.3602 12.9792 15.5792C13.7603 14.7981 13.7603 13.5318 12.9792 12.7508L10.1508 9.92234C9.36973 9.14129 8.1034 9.14129 7.32235 9.92234Z" fill="#777677"/>
<mask id="path-2-inside-1" fill="white">
<path fill-rule="evenodd" clip-rule="evenodd" d="M38 26.6C38 19.4203 32.1797 13.6 25 13.6C17.8203 13.6 12 19.4203 12 26.6"/>
</mask>
<path d="M42 26.6C42 17.2112 34.3888 9.60001 25 9.60001V17.6C29.9706 17.6 34 21.6294 34 26.6H42ZM25 9.60001C15.6112 9.60001 8 17.2112 8 26.6H16C16 21.6294 20.0294 17.6 25 17.6V9.60001Z" fill="#777677" mask="url(#path-2-inside-1)"/>
</g>
<g clip-path="url(#clip1)">
<mask id="path-4-inside-2" fill="white">
<path fill-rule="evenodd" clip-rule="evenodd" d="M2.98041 26.6C2.98041 29.3614 5.61403 31.6 8.86276 31.6V31.6C12.1115 31.6 14.7451 29.3614 14.7451 26.6"/>
</mask>
<path d="M-1.01959 26.6C-1.01959 32.1554 4.03911 35.6 8.86276 35.6V27.6C8.14672 27.6 7.60468 27.3519 7.2939 27.0878C6.99164 26.8309 6.98041 26.6445 6.98041 26.6H-1.01959ZM8.86276 35.6C13.6864 35.6 18.7451 32.1554 18.7451 26.6H10.7451C10.7451 26.6445 10.7339 26.8309 10.4316 27.0878C10.1208 27.3519 9.5788 27.6 8.86276 27.6V35.6Z" fill="#777677" mask="url(#path-4-inside-2)"/>
<mask id="path-6-inside-3" fill="white">
<path fill-rule="evenodd" clip-rule="evenodd" d="M11 27.6C11 24.8386 13.6336 22.6 16.8824 22.6V22.6C20.1311 22.6 22.7647 24.8386 22.7647 27.6"/>
</mask>
<path d="M7 27.6C7 22.0446 12.0587 18.6 16.8824 18.6V26.6C16.1663 26.6 15.6243 26.8481 15.3135 27.1122C15.0112 27.3692 15 27.5555 15 27.6H7ZM16.8824 18.6C21.706 18.6 26.7647 22.0446 26.7647 27.6H18.7647C18.7647 27.5555 18.7535 27.3692 18.4512 27.1122C18.1404 26.8481 17.5984 26.6 16.8824 26.6V18.6Z" fill="#777677" mask="url(#path-6-inside-3)"/>
<mask id="path-8-inside-4" fill="white">
<path fill-rule="evenodd" clip-rule="evenodd" d="M27 27.6C27 24.8386 29.6336 22.6 32.8824 22.6V22.6C36.1311 22.6 38.7647 24.8386 38.7647 27.6"/>
</mask>
<path d="M23 27.6C23 22.0446 28.0587 18.6 32.8824 18.6V26.6C32.1663 26.6 31.6243 26.8481 31.3135 27.1122C31.0112 27.3692 31 27.5555 31 27.6H23ZM32.8824 18.6C37.706 18.6 42.7647 22.0446 42.7647 27.6H34.7647C34.7647 27.5555 34.7535 27.3692 34.4512 27.1122C34.1404 26.8481 33.5984 26.6 32.8824 26.6V18.6Z" fill="#777677" mask="url(#path-8-inside-4)"/>
<mask id="path-10-inside-5" fill="white">
<path fill-rule="evenodd" clip-rule="evenodd" d="M19 26.6C19 29.3614 21.6336 31.6 24.8824 31.6V31.6C28.1311 31.6 30.7647 29.3614 30.7647 26.6"/>
</mask>
<path d="M15 26.6C15 32.1554 20.0587 35.6 24.8824 35.6V27.6C24.1663 27.6 23.6243 27.3519 23.3135 27.0878C23.0112 26.8309 23 26.6445 23 26.6H15ZM24.8824 35.6C29.706 35.6 34.7647 32.1554 34.7647 26.6H26.7647C26.7647 26.6445 26.7535 26.8309 26.4512 27.0878C26.1404 27.3519 25.5984 27.6 24.8824 27.6V35.6Z" fill="#777677" mask="url(#path-10-inside-5)"/>
<mask id="path-12-inside-6" fill="white">
<path fill-rule="evenodd" clip-rule="evenodd" d="M35.2549 26.6C35.2549 29.3614 37.8885 31.6 41.1372 31.6C44.386 31.6 47.0196 29.3614 47.0196 26.6"/>
</mask>
<path d="M31.2549 26.6C31.2549 32.1554 36.3136 35.6 41.1372 35.6V27.6C40.4212 27.6 39.8792 27.3519 39.5684 27.0878C39.2661 26.8309 39.2549 26.6445 39.2549 26.6H31.2549ZM41.1372 35.6C45.9609 35.6 51.0196 32.1554 51.0196 26.6H43.0196C43.0196 26.6445 43.0084 26.8309 42.7061 27.0878C42.3953 27.3519 41.8533 27.6 41.1372 27.6V35.6Z" fill="#777677" mask="url(#path-12-inside-6)"/>
</g>
<g clip-path="url(#clip2)">
<mask id="path-14-inside-7" fill="white">
<path fill-rule="evenodd" clip-rule="evenodd" d="M2.98041 34.6C2.98041 37.3614 5.61403 39.6 8.86276 39.6V39.6C12.1115 39.6 14.7451 37.3614 14.7451 34.6"/>
</mask>
<path d="M-1.01959 34.6C-1.01959 40.1554 4.03911 43.6 8.86276 43.6V35.6C8.14672 35.6 7.60468 35.3519 7.2939 35.0878C6.99164 34.8309 6.98041 34.6445 6.98041 34.6H-1.01959ZM8.86276 43.6C13.6864 43.6 18.7451 40.1554 18.7451 34.6H10.7451C10.7451 34.6445 10.7339 34.8309 10.4316 35.0878C10.1208 35.3519 9.5788 35.6 8.86276 35.6V43.6Z" fill="#777677" mask="url(#path-14-inside-7)"/>
<mask id="path-16-inside-8" fill="white">
<path fill-rule="evenodd" clip-rule="evenodd" d="M11 35.6C11 32.8386 13.6336 30.6 16.8824 30.6V30.6C20.1311 30.6 22.7647 32.8386 22.7647 35.6"/>
</mask>
<path d="M7 35.6C7 30.0446 12.0587 26.6 16.8824 26.6V34.6C16.1663 34.6 15.6243 34.8481 15.3135 35.1122C15.0112 35.3692 15 35.5555 15 35.6H7ZM16.8824 26.6C21.706 26.6 26.7647 30.0446 26.7647 35.6H18.7647C18.7647 35.5555 18.7535 35.3692 18.4512 35.1122C18.1404 34.8481 17.5984 34.6 16.8824 34.6V26.6Z" fill="#777677" mask="url(#path-16-inside-8)"/>
<mask id="path-18-inside-9" fill="white">
<path fill-rule="evenodd" clip-rule="evenodd" d="M27 35.6C27 32.8386 29.6336 30.6 32.8824 30.6V30.6C36.1311 30.6 38.7647 32.8386 38.7647 35.6"/>
</mask>
<path d="M23 35.6C23 30.0446 28.0587 26.6 32.8824 26.6V34.6C32.1663 34.6 31.6243 34.8481 31.3135 35.1122C31.0112 35.3692 31 35.5555 31 35.6H23ZM32.8824 26.6C37.706 26.6 42.7647 30.0446 42.7647 35.6H34.7647C34.7647 35.5555 34.7535 35.3692 34.4512 35.1122C34.1404 34.8481 33.5984 34.6 32.8824 34.6V26.6Z" fill="#777677" mask="url(#path-18-inside-9)"/>
<mask id="path-20-inside-10" fill="white">
<path fill-rule="evenodd" clip-rule="evenodd" d="M19 34.6C19 37.3614 21.6336 39.6 24.8824 39.6V39.6C28.1311 39.6 30.7647 37.3614 30.7647 34.6"/>
</mask>
<path d="M15 34.6C15 40.1554 20.0587 43.6 24.8824 43.6V35.6C24.1663 35.6 23.6243 35.3519 23.3135 35.0878C23.0112 34.8309 23 34.6445 23 34.6H15ZM24.8824 43.6C29.706 43.6 34.7647 40.1554 34.7647 34.6H26.7647C26.7647 34.6445 26.7535 34.8309 26.4512 35.0878C26.1404 35.3519 25.5984 35.6 24.8824 35.6V43.6Z" fill="#777677" mask="url(#path-20-inside-10)"/>
<mask id="path-22-inside-11" fill="white">
<path fill-rule="evenodd" clip-rule="evenodd" d="M35.2549 34.6C35.2549 37.3614 37.8885 39.6 41.1372 39.6V39.6C44.386 39.6 47.0196 37.3614 47.0196 34.6"/>
</mask>
<path d="M31.2549 34.6C31.2549 40.1554 36.3136 43.6 41.1372 43.6V35.6C40.4212 35.6 39.8792 35.3519 39.5684 35.0878C39.2661 34.8309 39.2549 34.6445 39.2549 34.6H31.2549ZM41.1372 43.6C45.9609 43.6 51.0196 40.1554 51.0196 34.6H43.0196C43.0196 34.6445 43.0084 34.8309 42.7061 35.0878C42.3953 35.3519 41.8533 35.6 41.1372 35.6V43.6Z" fill="#777677" mask="url(#path-22-inside-11)"/>
</g>
<g clip-path="url(#clip3)">
<mask id="path-24-inside-12" fill="white">
<path fill-rule="evenodd" clip-rule="evenodd" d="M2.98041 42.6C2.98041 45.3614 5.61403 47.6 8.86276 47.6V47.6C12.1115 47.6 14.7451 45.3614 14.7451 42.6"/>
</mask>
<path d="M-1.01959 42.6C-1.01959 48.1554 4.03911 51.6 8.86276 51.6V43.6C8.14672 43.6 7.60468 43.3519 7.2939 43.0878C6.99164 42.8309 6.98041 42.6445 6.98041 42.6H-1.01959ZM8.86276 51.6C13.6864 51.6 18.7451 48.1554 18.7451 42.6H10.7451C10.7451 42.6445 10.7339 42.8309 10.4316 43.0878C10.1208 43.3519 9.5788 43.6 8.86276 43.6V51.6Z" fill="#777677" mask="url(#path-24-inside-12)"/>
<mask id="path-26-inside-13" fill="white">
<path fill-rule="evenodd" clip-rule="evenodd" d="M11 43.6C11 40.8386 13.6336 38.6 16.8824 38.6V38.6C20.1311 38.6 22.7647 40.8386 22.7647 43.6"/>
</mask>
<path d="M7 43.6C7 38.0446 12.0587 34.6 16.8824 34.6V42.6C16.1663 42.6 15.6243 42.8481 15.3135 43.1122C15.0112 43.3692 15 43.5555 15 43.6H7ZM16.8824 34.6C21.706 34.6 26.7647 38.0446 26.7647 43.6H18.7647C18.7647 43.5555 18.7535 43.3692 18.4512 43.1122C18.1404 42.8481 17.5984 42.6 16.8824 42.6V34.6Z" fill="#777677" mask="url(#path-26-inside-13)"/>
<mask id="path-28-inside-14" fill="white">
<path fill-rule="evenodd" clip-rule="evenodd" d="M27 43.6C27 40.8386 29.6336 38.6 32.8824 38.6V38.6C36.1311 38.6 38.7647 40.8386 38.7647 43.6"/>
</mask>
<path d="M23 43.6C23 38.0446 28.0587 34.6 32.8824 34.6V42.6C32.1663 42.6 31.6243 42.8481 31.3135 43.1122C31.0112 43.3692 31 43.5555 31 43.6H23ZM32.8824 34.6C37.706 34.6 42.7647 38.0446 42.7647 43.6H34.7647C34.7647 43.5555 34.7535 43.3692 34.4512 43.1122C34.1404 42.8481 33.5984 42.6 32.8824 42.6V34.6Z" fill="#777677" mask="url(#path-28-inside-14)"/>
<mask id="path-30-inside-15" fill="white">
<path fill-rule="evenodd" clip-rule="evenodd" d="M19 42.6C19 45.3614 21.6336 47.6 24.8824 47.6V47.6C28.1311 47.6 30.7647 45.3614 30.7647 42.6"/>
</mask>
<path d="M15 42.6C15 48.1554 20.0587 51.6 24.8824 51.6V43.6C24.1663 43.6 23.6243 43.3519 23.3135 43.0878C23.0112 42.8309 23 42.6445 23 42.6H15ZM24.8824 51.6C29.706 51.6 34.7647 48.1554 34.7647 42.6H26.7647C26.7647 42.6445 26.7535 42.8309 26.4512 43.0878C26.1404 43.3519 25.5984 43.6 24.8824 43.6V51.6Z" fill="#777677" mask="url(#path-30-inside-15)"/>
<mask id="path-32-inside-16" fill="white">
<path fill-rule="evenodd" clip-rule="evenodd" d="M35.2549 42.6C35.2549 45.3614 37.8885 47.6 41.1372 47.6V47.6C44.386 47.6 47.0196 45.3614 47.0196 42.6"/>
</mask>
<path d="M31.2549 42.6C31.2549 48.1554 36.3136 51.6 41.1372 51.6V43.6C40.4212 43.6 39.8792 43.3519 39.5684 43.0878C39.2661 42.8309 39.2549 42.6445 39.2549 42.6H31.2549ZM41.1372 51.6C45.9609 51.6 51.0196 48.1554 51.0196 42.6H43.0196C43.0196 42.6445 43.0084 42.8309 42.7061 43.0878C42.3953 43.3519 41.8533 43.6 41.1372 43.6V51.6Z" fill="#777677" mask="url(#path-32-inside-16)"/>
</g>
<defs>
<clipPath id="clip0">
<rect width="38" height="37" fill="white" transform="translate(6 2.60001)"/>
</clipPath>
<clipPath id="clip1">
<rect width="46" height="9" fill="white" transform="translate(2 22.6)"/>
</clipPath>
<clipPath id="clip2">
<rect width="46" height="9" fill="white" transform="translate(2 30.6)"/>
</clipPath>
<clipPath id="clip3">
<rect width="46" height="9" fill="white" transform="translate(2 38.6)"/>
</clipPath>
</defs>
</svg>
